<svg width="649" height="500" viewBox="0 0 649 500" fill="none" xmlns="http://www.w3.org/2000/svg">
<g clip-path="url(#clip0_1701_1393)">
<mask id="mask0_1701_1393" style="mask-type:luminance" maskUnits="userSpaceOnUse" x="0" y="0" width="387" height="351">
<path d="M386.107 0H0V350.565H386.107V0Z" fill="white"/>
</mask>
<g mask="url(#mask0_1701_1393)">
<path d="M193.467 23.6719C166.217 23.6719 144.129 45.8302 144.129 73.1666C144.129 100.503 166.217 122.666 193.467 122.666C220.716 122.666 242.805 100.507 242.805 73.1709C242.805 45.8349 220.716 23.6719 193.467 23.6719ZM193.467 101.618C177.806 101.618 165.11 88.8818 165.11 73.1709C165.11 57.4604 177.806 44.7239 193.467 44.7239C209.128 44.7239 221.824 57.4604 221.824 73.1709C221.824 88.8818 209.128 101.618 193.467 101.618Z" fill="white" fill-opacity="0.2"/>
<path d="M313.033 227.59C285.784 227.59 263.695 249.748 263.695 277.085C263.695 304.421 285.784 326.579 313.033 326.579C340.283 326.579 362.372 304.421 362.372 277.085C362.372 249.748 340.283 227.59 313.033 227.59ZM313.033 305.532C297.373 305.532 284.676 292.795 284.676 277.085C284.676 261.374 297.373 248.638 313.033 248.638C328.694 248.638 341.391 261.374 341.391 277.085C341.391 292.795 328.694 305.532 313.033 305.532Z" fill="white" fill-opacity="0.2"/>
<path d="M73.0686 227.59C45.8188 227.59 23.7305 249.748 23.7305 277.085C23.7305 304.421 45.8188 326.579 73.0686 326.579C100.318 326.579 122.407 304.421 122.407 277.085C122.407 249.748 100.318 227.59 73.0686 227.59ZM73.0686 305.532C57.4075 305.532 44.7114 292.795 44.7114 277.085C44.7114 261.374 57.4075 248.638 73.0686 248.638C88.7293 248.638 101.425 261.374 101.425 277.085C101.425 292.795 88.7293 305.532 73.0686 305.532Z" fill="white" fill-opacity="0.2"/>
<path d="M386.085 275.178C386.071 274.584 386.049 273.992 386.018 273.394C385.988 272.792 385.952 272.199 385.908 271.606C385.908 271.606 385.908 271.597 385.908 271.588C383.482 237.406 357.63 209.716 324.359 204.582C324.143 204.573 323.918 204.569 323.702 204.551C321.258 204.445 318.845 204.214 316.471 203.86C316.277 203.839 316.083 203.808 315.889 203.777C280.919 198.377 254.137 168.063 254.137 131.468C254.137 122.476 255.756 113.864 258.707 105.911C259.885 103.579 260.931 101.167 261.848 98.702C264.8 90.7491 266.41 82.1506 266.41 73.1667C266.41 41.4581 246.306 14.467 218.192 4.31045C217.707 4.12899 217.217 3.9564 216.732 3.79708C209.427 1.33208 201.609 0 193.479 0C153.193 0 120.548 32.7531 120.548 73.1624C120.548 80.9204 121.753 88.3993 123.981 95.4136C125.525 100.255 127.549 104.88 130.007 109.217C130.223 109.894 130.426 110.576 130.62 111.261C132.464 117.683 133.443 124.463 133.443 131.468C133.443 167.966 106.798 198.227 71.9512 203.737C71.8235 203.759 71.6954 203.772 71.5677 203.79C68.4574 204.272 65.2722 204.551 62.0432 204.6C61.8623 204.608 61.6772 204.613 61.4959 204.613C28.335 209.87 2.59836 237.516 0.198517 271.628C0.189694 271.681 0.189695 271.726 0.185284 271.779C0.149992 272.319 0.110287 272.863 0.0882299 273.412C0.057349 273.996 0.0352924 274.593 0.022058 275.187C0.0088235 275.819 0 276.456 0 277.09C0 277.651 0.0088235 278.218 0.022058 278.78C0.0352924 279.404 0.057349 280.019 0.0882299 280.639C2.02928 319.309 33.9067 350.066 72.9309 350.066C97.238 350.066 118.766 338.135 132.014 319.795C132.014 319.795 132.023 319.795 132.023 319.787C132.742 318.667 133.483 317.569 134.273 316.494C134.956 315.547 135.658 314.609 136.386 313.697C149.739 296.849 170.345 286.055 193.47 286.055C215.263 286.055 234.828 295.641 248.164 310.847C260.335 334.337 284.823 350.389 313.035 350.389C352.209 350.389 384.183 319.472 386.018 280.639C386.049 280.023 386.071 279.404 386.085 278.78C386.098 278.218 386.107 277.651 386.107 277.09C386.107 276.448 386.098 275.819 386.085 275.178ZM73.0676 331.08C43.3386 331.08 19.2385 306.904 19.2385 277.08C19.2385 247.257 43.3386 223.08 73.0676 223.08C102.797 223.08 126.896 247.257 126.896 277.08C126.896 306.908 102.797 331.08 73.0676 331.08ZM193.466 256.59C168.36 256.59 148.005 236.171 148.005 210.986C148.005 185.8 168.36 165.381 193.466 165.381C218.572 165.381 238.926 185.8 238.926 210.986C238.926 236.171 218.572 256.59 193.466 256.59ZM193.466 127.167C163.737 127.167 139.637 102.99 139.637 73.1667C139.637 43.3432 163.737 19.1669 193.466 19.1669C223.195 19.1669 247.295 43.3432 247.295 73.1667C247.295 102.99 223.195 127.167 193.466 127.167ZM313.035 331.08C283.306 331.08 259.206 306.904 259.206 277.08C259.206 247.257 283.306 223.08 313.035 223.08C342.764 223.08 366.864 247.257 366.864 277.08C366.864 306.908 342.764 331.08 313.035 331.08Z" fill="url(#paint0_linear_1701_1393)"/>
<path d="M192.934 250.532C214.522 250.532 232.024 232.965 232.024 211.294C232.024 189.624 214.522 172.057 192.934 172.057C171.345 172.057 153.844 189.624 153.844 211.294C153.844 232.965 171.345 250.532 192.934 250.532Z" fill="#347560"/>
<path d="M227.178 211.013C227.178 191.874 211.721 176.358 192.654 176.358C173.586 176.358 158.129 191.874 158.129 211.013C158.129 230.152 173.586 245.667 192.654 245.667C211.721 245.667 227.178 230.152 227.178 211.013Z" fill="black"/>
<path d="M192.871 197.826C195.356 197.826 197.37 195.804 197.37 193.309C197.37 190.815 195.356 188.793 192.871 188.793C190.386 188.793 188.371 190.815 188.371 193.309C188.371 195.804 190.386 197.826 192.871 197.826Z" fill="white"/>
<path d="M177.875 224.495C180.36 224.495 182.374 222.473 182.374 219.978C182.374 217.484 180.36 215.462 177.875 215.462C175.39 215.462 173.375 217.484 173.375 219.978C173.375 222.473 175.39 224.495 177.875 224.495Z" fill="white"/>
<path d="M207.871 224.495C210.356 224.495 212.37 222.473 212.37 219.978C212.37 217.484 210.356 215.462 207.871 215.462C205.386 215.462 203.371 217.484 203.371 219.978C203.371 222.473 205.386 224.495 207.871 224.495Z" fill="white"/>
<path fill-rule="evenodd" clip-rule="evenodd" d="M193.938 210.291L208.546 219.181L207.435 221.019L192.867 212.154L178.298 221.019L177.188 219.181L191.795 210.291V193.198H193.938V210.291Z" fill="white"/>
<path d="M192.871 215.463C195.356 215.463 197.37 213.441 197.37 210.946C197.37 208.452 195.356 206.43 192.871 206.43C190.386 206.43 188.371 208.452 188.371 210.946C188.371 213.441 190.386 215.463 192.871 215.463Z" fill="white"/>
</g>
</g>
<g clip-path="url(#clip1_1701_1393)">
<mask id="mask1_1701_1393" style="mask-type:luminance" maskUnits="userSpaceOnUse" x="109" y="54" width="408" height="372">
<path d="M516.156 54.1191H109.855V425.686H516.156V54.1191Z" fill="white"/>
</mask>
<g mask="url(#mask1_1701_1393)">
<path d="M313.438 79.209C284.763 79.209 261.52 102.695 261.52 131.669C261.52 160.643 284.763 184.134 313.438 184.134C342.113 184.134 365.357 160.647 365.357 131.673C365.357 102.7 342.113 79.209 313.438 79.209ZM313.438 161.825C296.958 161.825 283.598 148.325 283.598 131.673C283.598 115.022 296.958 101.522 313.438 101.522C329.918 101.522 343.278 115.022 343.278 131.673C343.278 148.325 329.918 161.825 313.438 161.825Z" fill="#347560"/>
<path d="M439.262 295.344C410.587 295.344 387.344 318.83 387.344 347.804C387.344 376.778 410.587 400.263 439.262 400.263C467.937 400.263 491.181 376.778 491.181 347.804C491.181 318.83 467.937 295.344 439.262 295.344ZM439.262 377.955C422.783 377.955 409.422 364.455 409.422 347.804C409.422 331.152 422.783 317.652 439.262 317.652C455.742 317.652 469.103 331.152 469.103 347.804C469.103 364.455 455.742 377.955 439.262 377.955Z" fill="#347560"/>
<path d="M186.743 295.344C158.068 295.344 134.824 318.83 134.824 347.804C134.824 376.778 158.068 400.263 186.743 400.263C215.417 400.263 238.661 376.778 238.661 347.804C238.661 318.83 215.417 295.344 186.743 295.344ZM186.743 377.955C170.263 377.955 156.903 364.455 156.903 347.804C156.903 331.152 170.263 317.652 186.743 317.652C203.223 317.652 216.583 331.152 216.583 347.804C216.583 364.455 203.223 377.955 186.743 377.955Z" fill="#347560"/>
<path d="M516.133 345.782C516.119 345.153 516.096 344.525 516.063 343.892C516.031 343.254 515.994 342.625 515.947 341.997C515.947 341.997 515.947 341.987 515.947 341.978C513.394 305.748 486.19 276.398 451.179 270.957C450.951 270.948 450.715 270.943 450.487 270.924C447.916 270.812 445.376 270.568 442.878 270.192C442.674 270.169 442.47 270.136 442.266 270.104C405.467 264.381 377.284 232.25 377.284 193.464C377.284 183.932 378.988 174.804 382.093 166.375C383.333 163.903 384.433 161.347 385.399 158.734C388.505 150.305 390.199 141.191 390.199 131.669C390.199 98.0609 369.044 69.4528 339.459 58.6878C338.949 58.4955 338.434 58.3126 337.923 58.1437C330.235 55.531 322.009 54.1191 313.454 54.1191C271.061 54.1191 236.709 88.8344 236.709 131.664C236.709 139.887 237.976 147.814 240.32 155.249C241.945 160.38 244.076 165.282 246.661 169.879C246.889 170.597 247.103 171.319 247.307 172.046C249.247 178.852 250.278 186.038 250.278 193.464C250.278 232.147 222.239 264.221 185.57 270.061C185.435 270.085 185.301 270.099 185.166 270.118C181.893 270.629 178.541 270.924 175.144 270.976C174.953 270.985 174.758 270.99 174.568 270.99C139.672 276.562 112.59 305.865 110.064 342.02C110.055 342.076 110.055 342.123 110.05 342.179C110.013 342.752 109.972 343.329 109.948 343.91C109.916 344.53 109.893 345.163 109.879 345.792C109.865 346.462 109.855 347.137 109.855 347.808C109.855 348.404 109.865 349.004 109.879 349.6C109.893 350.262 109.916 350.914 109.948 351.57C111.991 392.557 145.536 425.156 186.601 425.156C212.179 425.156 234.833 412.511 248.774 393.073C248.774 393.073 248.783 393.073 248.783 393.064C249.54 391.877 250.32 390.713 251.151 389.573C251.87 388.57 252.608 387.575 253.374 386.609C267.426 368.752 289.11 357.311 313.444 357.311C336.377 357.311 356.965 367.471 370.998 383.588C383.807 408.486 409.575 425.499 439.262 425.499C480.485 425.499 514.132 392.73 516.063 351.57C516.096 350.918 516.119 350.262 516.133 349.6C516.146 349.004 516.156 348.404 516.156 347.808C516.156 347.128 516.146 346.462 516.133 345.782ZM186.745 405.034C155.461 405.034 130.1 379.409 130.1 347.799C130.1 316.189 155.461 290.564 186.745 290.564C218.028 290.564 243.389 316.189 243.389 347.799C243.389 379.414 218.028 405.034 186.745 405.034ZM313.44 326.081C287.021 326.081 265.602 304.439 265.602 277.745C265.602 251.05 287.021 229.408 313.44 229.408C339.859 229.408 361.278 251.05 361.278 277.745C361.278 304.439 339.859 326.081 313.44 326.081ZM313.44 188.904C282.156 188.904 256.796 163.279 256.796 131.669C256.796 100.059 282.156 74.4342 313.44 74.4342C344.724 74.4342 370.084 100.059 370.084 131.669C370.084 163.279 344.724 188.904 313.44 188.904ZM439.262 405.034C407.979 405.034 382.618 379.409 382.618 347.799C382.618 316.189 407.979 290.564 439.262 290.564C470.546 290.564 495.907 316.189 495.907 347.799C495.907 379.414 470.546 405.034 439.262 405.034Z" fill="url(#paint1_linear_1701_1393)"/>
<path d="M312.881 319.66C335.598 319.66 354.015 301.04 354.015 278.072C354.015 255.103 335.598 236.483 312.881 236.483C290.163 236.483 271.746 255.103 271.746 278.072C271.746 301.04 290.163 319.66 312.881 319.66Z" fill="#347560"/>
<path d="M348.915 277.772C348.915 257.487 332.649 241.042 312.584 241.042C292.519 241.042 276.254 257.487 276.254 277.772C276.254 298.058 292.519 314.503 312.584 314.503C332.649 314.503 348.915 298.058 348.915 277.772Z" fill="black"/>
<path d="M312.817 263.797C315.432 263.797 317.552 261.654 317.552 259.01C317.552 256.366 315.432 254.223 312.817 254.223C310.202 254.223 308.082 256.366 308.082 259.01C308.082 261.654 310.202 263.797 312.817 263.797Z" fill="white"/>
<path d="M297.032 292.063C299.647 292.063 301.767 289.92 301.767 287.276C301.767 284.632 299.647 282.489 297.032 282.489C294.417 282.489 292.297 284.632 292.297 287.276C292.297 289.92 294.417 292.063 297.032 292.063Z" fill="white"/>
<path d="M328.598 292.063C331.213 292.063 333.333 289.92 333.333 287.276C333.333 284.632 331.213 282.489 328.598 282.489C325.983 282.489 323.863 284.632 323.863 287.276C323.863 289.92 325.983 292.063 328.598 292.063Z" fill="white"/>
<path fill-rule="evenodd" clip-rule="evenodd" d="M313.935 277.009L329.307 286.43L328.138 288.379L312.808 278.983L297.477 288.379L296.309 286.43L311.68 277.009V258.892H313.935V277.009Z" fill="white"/>
<path d="M312.817 282.489C315.432 282.489 317.552 280.346 317.552 277.702C317.552 275.058 315.432 272.915 312.817 272.915C310.202 272.915 308.082 275.058 308.082 277.702C308.082 280.346 310.202 282.489 312.817 282.489Z" fill="white"/>
</g>
</g>
<g clip-path="url(#clip2_1701_1393)">
<mask id="mask2_1701_1393" style="mask-type:luminance" maskUnits="userSpaceOnUse" x="232" y="122" width="417" height="378">
<path d="M648.626 122.778H232.633V500H648.626V122.778Z" fill="white"/>
</mask>
<g mask="url(#mask2_1701_1393)">
<path d="M441.075 148.25C411.716 148.25 387.918 172.093 387.918 201.508C387.918 230.923 411.716 254.771 441.075 254.771C470.434 254.771 494.232 230.928 494.232 201.513C494.232 172.098 470.434 148.25 441.075 148.25ZM441.075 232.123C424.202 232.123 410.523 218.418 410.523 201.513C410.523 184.608 424.202 170.903 441.075 170.903C457.948 170.903 471.627 184.608 471.627 201.513C471.627 218.418 457.948 232.123 441.075 232.123Z" fill="#5B746B"/>
<path d="M569.899 367.674C540.54 367.674 516.742 391.517 516.742 420.932C516.742 450.347 540.54 474.19 569.899 474.19C599.259 474.19 623.057 450.347 623.057 420.932C623.057 391.517 599.259 367.674 569.899 367.674ZM569.899 451.542C553.026 451.542 539.347 437.837 539.347 420.932C539.347 404.027 553.026 390.322 569.899 390.322C586.772 390.322 600.452 404.027 600.452 420.932C600.452 437.837 586.772 451.542 569.899 451.542Z" fill="#5B746B"/>
<path d="M311.356 367.674C281.997 367.674 258.199 391.517 258.199 420.932C258.199 450.347 281.997 474.19 311.356 474.19C340.715 474.19 364.514 450.347 364.514 420.932C364.514 391.517 340.715 367.674 311.356 367.674ZM311.356 451.542C294.483 451.542 280.804 437.837 280.804 420.932C280.804 404.027 294.483 390.322 311.356 390.322C328.229 390.322 341.908 404.027 341.908 420.932C341.908 437.837 328.229 451.542 311.356 451.542Z" fill="#5B746B"/>
<path d="M648.603 418.879C648.589 418.241 648.565 417.603 648.531 416.961C648.498 416.313 648.46 415.675 648.413 415.036C648.413 415.036 648.413 415.027 648.413 415.017C645.798 378.236 617.946 348.44 582.099 342.916C581.866 342.907 581.624 342.902 581.391 342.883C578.758 342.768 576.158 342.521 573.601 342.14C573.392 342.116 573.182 342.083 572.973 342.049C535.297 336.24 506.442 303.62 506.442 264.243C506.442 254.566 508.186 245.3 511.366 236.743C512.635 234.233 513.761 231.637 514.75 228.985C517.93 220.428 519.664 211.175 519.664 201.508C519.664 167.389 498.005 138.345 467.714 127.417C467.191 127.221 466.664 127.036 466.141 126.864C458.27 124.212 449.848 122.778 441.088 122.778C397.684 122.778 362.512 158.022 362.512 201.504C362.512 209.852 363.81 217.899 366.21 225.447C367.874 230.657 370.055 235.633 372.703 240.3C372.935 241.028 373.154 241.762 373.363 242.5C375.35 249.409 376.405 256.705 376.405 264.243C376.405 303.515 347.697 336.078 310.154 342.006C310.016 342.03 309.878 342.045 309.74 342.064C306.389 342.583 302.957 342.883 299.479 342.935C299.284 342.945 299.084 342.949 298.889 342.949C263.161 348.607 235.432 378.355 232.847 415.061C232.837 415.117 232.837 415.165 232.832 415.222C232.794 415.803 232.752 416.389 232.728 416.979C232.695 417.608 232.671 418.251 232.657 418.889C232.642 419.57 232.633 420.256 232.633 420.937C232.633 421.541 232.642 422.151 232.657 422.756C232.671 423.427 232.695 424.089 232.728 424.756C234.819 466.366 269.164 499.462 311.209 499.462C337.398 499.462 360.592 486.624 374.865 466.89C374.865 466.89 374.875 466.89 374.875 466.881C375.65 465.676 376.448 464.495 377.299 463.337C378.035 462.318 378.791 461.309 379.576 460.328C393.963 442.199 416.164 430.584 441.079 430.584C464.558 430.584 485.638 440.899 500.006 457.261C513.12 482.538 539.503 499.81 569.898 499.81C612.105 499.81 646.554 466.542 648.531 424.756C648.565 424.094 648.589 423.427 648.603 422.756C648.617 422.151 648.626 421.541 648.626 420.937C648.626 420.246 648.617 419.57 648.603 418.879ZM311.356 479.033C279.326 479.033 253.36 453.018 253.36 420.927C253.36 388.836 279.326 362.821 311.356 362.821C343.386 362.821 369.352 388.836 369.352 420.927C369.352 453.023 343.386 479.033 311.356 479.033ZM441.074 398.879C414.025 398.879 392.095 376.907 392.095 349.807C392.095 322.706 414.025 300.734 441.074 300.734C468.123 300.734 490.053 322.706 490.053 349.807C490.053 376.907 468.123 398.879 441.074 398.879ZM441.074 259.614C409.044 259.614 383.078 233.599 383.078 201.508C383.078 169.417 409.044 143.403 441.074 143.403C473.104 143.403 499.07 169.417 499.07 201.508C499.07 233.599 473.104 259.614 441.074 259.614ZM569.898 479.033C537.868 479.033 511.903 453.018 511.903 420.927C511.903 388.836 537.868 362.821 569.898 362.821C601.928 362.821 627.894 388.836 627.894 420.927C627.894 453.023 601.928 479.033 569.898 479.033Z" fill="url(#paint2_linear_1701_1393)"/>
<path d="M440.499 392.36C463.758 392.36 482.615 373.457 482.615 350.139C482.615 326.821 463.758 307.918 440.499 307.918C417.239 307.918 398.383 326.821 398.383 350.139C398.383 373.457 417.239 392.36 440.499 392.36Z" fill="#5B746B"/>
<path d="M477.394 349.835C477.394 329.241 460.74 312.546 440.197 312.546C419.654 312.546 403 329.241 403 349.835C403 370.43 419.654 387.125 440.197 387.125C460.74 387.125 477.394 370.43 477.394 349.835Z" fill="black"/>
<path d="M440.434 335.647C443.111 335.647 445.282 333.471 445.282 330.787C445.282 328.103 443.111 325.927 440.434 325.927C437.756 325.927 435.586 328.103 435.586 330.787C435.586 333.471 437.756 335.647 440.434 335.647Z" fill="white"/>
<path d="M424.274 364.344C426.951 364.344 429.122 362.168 429.122 359.484C429.122 356.8 426.951 354.624 424.274 354.624C421.596 354.624 419.426 356.8 419.426 359.484C419.426 362.168 421.596 364.344 424.274 364.344Z" fill="white"/>
<path d="M456.594 364.344C459.271 364.344 461.442 362.168 461.442 359.484C461.442 356.8 459.271 354.624 456.594 354.624C453.917 354.624 451.746 356.8 451.746 359.484C451.746 362.168 453.917 364.344 456.594 364.344Z" fill="white"/>
<path fill-rule="evenodd" clip-rule="evenodd" d="M441.582 349.06L457.321 358.625L456.124 360.604L440.428 351.064L424.732 360.604L423.535 358.625L439.274 349.06V330.667H441.582V349.06Z" fill="white"/>
<path d="M440.434 354.624C443.111 354.624 445.282 352.448 445.282 349.764C445.282 347.08 443.111 344.904 440.434 344.904C437.756 344.904 435.586 347.08 435.586 349.764C435.586 352.448 437.756 354.624 440.434 354.624Z" fill="white"/>
</g>
</g>
<defs>
<linearGradient id="paint0_linear_1701_1393" x1="0" y1="0" x2="0" y2="350.389" gradientUnits="userSpaceOnUse">
<stop stop-color="#624CDE"/>
<stop offset="1" stop-color="#500F9C"/>
</linearGradient>
<linearGradient id="paint1_linear_1701_1393" x1="109.855" y1="54.1191" x2="109.855" y2="425.499" gradientUnits="userSpaceOnUse">
<stop stop-color="#277EFF"/>
<stop offset="1" stop-color="#00FFC2"/>
</linearGradient>
<linearGradient id="paint2_linear_1701_1393" x1="232.633" y1="122.778" x2="232.633" y2="499.81" gradientUnits="userSpaceOnUse">
<stop stop-color="#B81E48"/>
<stop offset="1" stop-color="#FF00D6"/>
</linearGradient>
<clipPath id="clip0_1701_1393">
<rect width="386.107" height="350.565" fill="white"/>
</clipPath>
<clipPath id="clip1_1701_1393">
<rect width="406.301" height="371.567" fill="white" transform="translate(109.855 54.1191)"/>
</clipPath>
<clipPath id="clip2_1701_1393">
<rect width="415.994" height="377.221" fill="white" transform="translate(232.633 122.778)"/>
</clipPath>
</defs>
</svg>
